<svg width="97" height="290" viewBox="0 0 97 290" fill="none" xmlns="http://www.w3.org/2000/svg">
<path d="M1 3C20 9 34.6379 13.6299 45 18.5C74.0532 32.1548 76.0799 40.3378 73.5 52.5C70.3283 67.4522 35.9687 56.9327 15.5677 49.914C14.5659 49.5693 13.748 50.8145 14.4765 51.5836C37.06 75.4262 77 127.332 77 167.5C77 209.5 51 262.667 38 284M38 284C40.1667 277.333 40.5 261.5 40 251C39.505 240.604 37.8333 224.667 36.5 218M38 284C41.0614 282.019 46.8795 276.629 53.3515 272C56.1478 270 64.8408 264.948 70 262C77 258 86.5 253.5 95.5 250" stroke="#FCB598" stroke-width="5"/>
</svg>
